<svg width="681" height="1157" viewBox="0 0 681 1157" fill="none" xmlns="http://www.w3.org/2000/svg">
<g opacity="0.05">
<path opacity="0.91" d="M462.117 173.6C126.935 -120.121 8.73775 44.9446 0.471977 57.525C0.125787 58.0519 0.00310071 58.5988 0.00895986 59.2293L3.93925 482.113C5.09932 606.932 105.729 709.256 227.552 682.05C366.056 651.118 528.425 579.852 584.401 416.321C638.187 259.188 488.966 197.127 462.117 173.6Z" fill="#6FCF97"/>
</g>
<g opacity="0.91" filter="url(#filter0_d_118_12)">
<path d="M504.788 724.342C383.465 618.049 301.184 594.049 248.42 597.849C195.692 601.646 172.169 633.228 168.4 638.817C168.117 639.237 168.005 639.679 168.011 640.285L169.918 845.465C170.611 919.975 202.183 989.418 250.579 1032.72C298.946 1075.99 364.093 1093.15 432.14 1063.24C502.219 1032.43 566.206 982.347 594.059 900.993C603.852 872.39 604.387 848.171 599.423 827.665C594.457 807.153 583.972 790.29 571.625 776.432C559.274 762.571 545.076 751.733 532.711 743.273C527.866 739.958 523.312 737.015 519.257 734.394C518.136 733.669 517.052 732.968 516.011 732.292C511.232 729.185 507.31 726.551 504.788 724.342Z" stroke="#4F4F4F" stroke-width="2"/>
</g>
<mask id="mask0_118_12" style="mask-type:alpha" maskUnits="userSpaceOnUse" x="167" y="537" width="362" height="391">
<path opacity="0.69" d="M447.682 642.787C247.486 467.57 174.733 561.485 167.593 571.916C167.166 572.54 167.004 573.221 167.011 573.977L168.164 697.878C169.555 847.426 300.604 982.65 427.673 903.783C469.152 878.038 504.283 841.596 521.955 790.031C554.623 694.708 463.99 657.06 447.682 642.787Z" fill="#25356A" fill-opacity="0.35"/>
</mask>
<g mask="url(#mask0_118_12)">
<circle cx="169.14" cy="532.547" r="5.07203" fill="#25356A" fill-opacity="0.35"/>
<circle cx="186.047" cy="532.547" r="5.07203" fill="#25356A" fill-opacity="0.35"/>
<circle cx="202.953" cy="532.547" r="5.07203" fill="#25356A" fill-opacity="0.35"/>
<circle cx="219.86" cy="532.547" r="5.07203" fill="#25356A" fill-opacity="0.35"/>
<circle cx="236.767" cy="532.547" r="5.07203" fill="#25356A" fill-opacity="0.35"/>
<circle cx="253.674" cy="532.547" r="5.07203" fill="#25356A" fill-opacity="0.35"/>
<circle cx="270.581" cy="532.547" r="5.07203" fill="#25356A" fill-opacity="0.35"/>
<circle cx="287.487" cy="532.547" r="5.07203" fill="#25356A" fill-opacity="0.35"/>
<circle cx="304.394" cy="532.547" r="5.07203" fill="#25356A" fill-opacity="0.35"/>
<circle cx="321.301" cy="532.547" r="5.07203" fill="#25356A" fill-opacity="0.35"/>
<circle cx="338.208" cy="532.547" r="5.07203" fill="#25356A" fill-opacity="0.35"/>
<circle cx="355.115" cy="532.547" r="5.07203" fill="#25356A" fill-opacity="0.35"/>
<circle cx="372.021" cy="532.547" r="5.07203" fill="#25356A" fill-opacity="0.35"/>
<circle cx="388.928" cy="532.547" r="5.07203" fill="#25356A" fill-opacity="0.35"/>
<circle cx="405.835" cy="532.547" r="5.07203" fill="#25356A" fill-opacity="0.35"/>
<circle cx="422.741" cy="532.547" r="5.07203" fill="#25356A" fill-opacity="0.35"/>
<circle cx="439.648" cy="532.547" r="5.07203" fill="#25356A" fill-opacity="0.35"/>
<circle cx="456.555" cy="532.547" r="5.07203" fill="#25356A" fill-opacity="0.35"/>
<circle cx="473.462" cy="532.547" r="5.07203" fill="#25356A" fill-opacity="0.35"/>
<circle cx="490.369" cy="532.547" r="5.07203" fill="#25356A" fill-opacity="0.35"/>
<circle cx="507.275" cy="532.547" r="5.07203" fill="#25356A" fill-opacity="0.35"/>
<circle cx="524.182" cy="532.547" r="5.07203" fill="#25356A" fill-opacity="0.35"/>
<circle cx="169.14" cy="549.454" r="5.07203" fill="#25356A" fill-opacity="0.35"/>
<circle cx="202.953" cy="549.454" r="5.07203" fill="#25356A" fill-opacity="0.35"/>
<circle cx="219.86" cy="549.454" r="5.07203" fill="#25356A" fill-opacity="0.35"/>
<circle cx="236.767" cy="549.454" r="5.07203" fill="#25356A" fill-opacity="0.35"/>
<circle cx="253.674" cy="549.454" r="5.07203" fill="#25356A" fill-opacity="0.35"/>
<circle cx="270.581" cy="549.454" r="5.07203" fill="#25356A" fill-opacity="0.35"/>
<circle cx="321.301" cy="549.454" r="5.07203" fill="#25356A" fill-opacity="0.35"/>
<circle cx="338.208" cy="549.454" r="5.07203" fill="#25356A" fill-opacity="0.35"/>
<circle cx="355.115" cy="549.454" r="5.07203" fill="#25356A" fill-opacity="0.35"/>
<circle cx="372.021" cy="549.454" r="5.07203" fill="#25356A" fill-opacity="0.35"/>
<circle cx="388.928" cy="549.454" r="5.07203" fill="#25356A" fill-opacity="0.35"/>
<circle cx="405.835" cy="549.454" r="5.07203" fill="#25356A" fill-opacity="0.35"/>
<circle cx="422.741" cy="549.454" r="5.07203" fill="#25356A" fill-opacity="0.35"/>
<circle cx="439.648" cy="549.454" r="5.07203" fill="#25356A" fill-opacity="0.35"/>
<circle cx="456.555" cy="549.454" r="5.07203" fill="#25356A" fill-opacity="0.35"/>
<circle cx="473.462" cy="549.454" r="5.07203" fill="#25356A" fill-opacity="0.35"/>
<circle cx="490.369" cy="549.454" r="5.07203" fill="#25356A" fill-opacity="0.35"/>
<circle cx="507.275" cy="549.454" r="5.07203" fill="#25356A" fill-opacity="0.35"/>
<circle cx="524.182" cy="549.454" r="5.07203" fill="#25356A" fill-opacity="0.35"/>
<circle cx="186.047" cy="566.361" r="5.07203" fill="#25356A" fill-opacity="0.35"/>
<circle cx="202.953" cy="566.361" r="5.07203" fill="#25356A" fill-opacity="0.35"/>
<circle cx="219.86" cy="566.361" r="5.07203" fill="#25356A" fill-opacity="0.35"/>
<circle cx="236.767" cy="566.361" r="5.07203" fill="#25356A" fill-opacity="0.35"/>
<circle cx="253.674" cy="566.361" r="5.07203" fill="#25356A" fill-opacity="0.35"/>
<circle cx="270.581" cy="566.361" r="5.07203" fill="#25356A" fill-opacity="0.35"/>
<circle cx="287.487" cy="566.361" r="5.07203" fill="#25356A" fill-opacity="0.35"/>
<circle cx="304.394" cy="566.361" r="5.07203" fill="#25356A" fill-opacity="0.35"/>
<circle cx="321.301" cy="566.361" r="5.07203" fill="#25356A" fill-opacity="0.35"/>
<circle cx="355.115" cy="566.361" r="5.07203" fill="#25356A" fill-opacity="0.35"/>
<circle cx="372.021" cy="566.361" r="5.07203" fill="#25356A" fill-opacity="0.35"/>
<circle cx="388.928" cy="566.361" r="5.07203" fill="#25356A" fill-opacity="0.35"/>
<circle cx="405.835" cy="566.361" r="5.07203" fill="#25356A" fill-opacity="0.35"/>
<circle cx="422.741" cy="566.361" r="5.07203" fill="#25356A" fill-opacity="0.35"/>
<circle cx="439.648" cy="566.361" r="5.07203" fill="#25356A" fill-opacity="0.35"/>
<circle cx="456.555" cy="566.361" r="5.07203" fill="#25356A" fill-opacity="0.35"/>
<circle cx="473.462" cy="566.361" r="5.07203" fill="#25356A" fill-opacity="0.35"/>
<circle cx="490.369" cy="566.361" r="5.07203" fill="#25356A" fill-opacity="0.35"/>
<circle cx="507.275" cy="566.361" r="5.07203" fill="#25356A" fill-opacity="0.35"/>
<circle cx="524.182" cy="566.361" r="5.07203" fill="#25356A" fill-opacity="0.35"/>
<circle cx="186.047" cy="583.267" r="5.07203" fill="#25356A" fill-opacity="0.35"/>
<circle cx="202.953" cy="583.267" r="5.07203" fill="#25356A" fill-opacity="0.35"/>
<circle cx="219.86" cy="583.267" r="5.07203" fill="#25356A" fill-opacity="0.35"/>
<circle cx="236.767" cy="583.267" r="5.07203" fill="#25356A" fill-opacity="0.35"/>
<circle cx="253.674" cy="583.267" r="5.07203" fill="#25356A" fill-opacity="0.35"/>
<circle cx="270.581" cy="583.267" r="5.07203" fill="#25356A" fill-opacity="0.35"/>
<circle cx="287.487" cy="583.267" r="5.07203" fill="#25356A" fill-opacity="0.35"/>
<circle cx="304.394" cy="583.267" r="5.07203" fill="#25356A" fill-opacity="0.35"/>
<circle cx="321.301" cy="583.267" r="5.07203" fill="#25356A" fill-opacity="0.35"/>
<circle cx="338.208" cy="583.267" r="5.07203" fill="#25356A" fill-opacity="0.35"/>
<circle cx="355.115" cy="583.267" r="5.07203" fill="#25356A" fill-opacity="0.35"/>
<circle cx="388.928" cy="583.267" r="5.07203" fill="#25356A" fill-opacity="0.35"/>
<circle cx="405.835" cy="583.267" r="5.07203" fill="#25356A" fill-opacity="0.35"/>
<circle cx="422.741" cy="583.267" r="5.07203" fill="#25356A" fill-opacity="0.35"/>
<circle cx="439.648" cy="583.267" r="5.07203" fill="#25356A" fill-opacity="0.35"/>
<circle cx="456.555" cy="583.267" r="5.07203" fill="#25356A" fill-opacity="0.35"/>
<circle cx="473.462" cy="583.267" r="5.07203" fill="#25356A" fill-opacity="0.35"/>
<circle cx="490.369" cy="583.267" r="5.07203" fill="#25356A" fill-opacity="0.35"/>
<circle cx="507.275" cy="583.267" r="5.07203" fill="#25356A" fill-opacity="0.35"/>
<circle cx="524.182" cy="583.267" r="5.07203" fill="#25356A" fill-opacity="0.35"/>
<circle cx="186.047" cy="600.174" r="5.07203" fill="#25356A" fill-opacity="0.35"/>
<circle cx="202.953" cy="600.174" r="5.07203" fill="#25356A" fill-opacity="0.35"/>
<circle cx="219.86" cy="600.174" r="5.07203" fill="#25356A" fill-opacity="0.35"/>
<circle cx="236.767" cy="600.174" r="5.07203" fill="#25356A" fill-opacity="0.35"/>
<circle cx="253.674" cy="600.174" r="5.07203" fill="#25356A" fill-opacity="0.35"/>
<circle cx="270.581" cy="600.174" r="5.07203" fill="#25356A" fill-opacity="0.35"/>
<circle cx="287.487" cy="600.174" r="5.07203" fill="#25356A" fill-opacity="0.35"/>
<circle cx="304.394" cy="600.174" r="5.07203" fill="#25356A" fill-opacity="0.35"/>
<circle cx="321.301" cy="600.174" r="5.07203" fill="#25356A" fill-opacity="0.35"/>
<circle cx="338.208" cy="600.174" r="5.07203" fill="#25356A" fill-opacity="0.35"/>
<circle cx="355.115" cy="600.174" r="5.07203" fill="#25356A" fill-opacity="0.35"/>
<circle cx="372.021" cy="600.174" r="5.07203" fill="#25356A" fill-opacity="0.35"/>
<circle cx="405.835" cy="600.174" r="5.07203" fill="#25356A" fill-opacity="0.35"/>
<circle cx="422.741" cy="600.174" r="5.07203" fill="#25356A" fill-opacity="0.35"/>
<circle cx="439.648" cy="600.174" r="5.07203" fill="#25356A" fill-opacity="0.35"/>
<circle cx="456.555" cy="600.174" r="5.07203" fill="#25356A" fill-opacity="0.35"/>
<circle cx="473.462" cy="600.174" r="5.07203" fill="#25356A" fill-opacity="0.35"/>
<circle cx="490.369" cy="600.174" r="5.07203" fill="#25356A" fill-opacity="0.35"/>
<circle cx="507.275" cy="600.174" r="5.07203" fill="#25356A" fill-opacity="0.35"/>
<circle cx="524.182" cy="600.174" r="5.07203" fill="#25356A" fill-opacity="0.35"/>
<circle cx="169.14" cy="617.081" r="5.07203" fill="#25356A" fill-opacity="0.35"/>
<circle cx="186.047" cy="617.081" r="5.07203" fill="#25356A" fill-opacity="0.35"/>
<circle cx="202.953" cy="617.081" r="5.07203" fill="#25356A" fill-opacity="0.35"/>
<circle cx="219.86" cy="617.081" r="5.07203" fill="#25356A" fill-opacity="0.35"/>
<circle cx="236.767" cy="617.081" r="5.07203" fill="#25356A" fill-opacity="0.35"/>
<circle cx="253.674" cy="617.081" r="5.07203" fill="#25356A" fill-opacity="0.35"/>
<circle cx="270.581" cy="617.081" r="5.07203" fill="#25356A" fill-opacity="0.35"/>
<circle cx="287.487" cy="617.081" r="5.07203" fill="#25356A" fill-opacity="0.35"/>
<circle cx="304.394" cy="617.081" r="5.07203" fill="#25356A" fill-opacity="0.35"/>
<circle cx="321.301" cy="617.081" r="5.07203" fill="#25356A" fill-opacity="0.35"/>
<circle cx="338.208" cy="617.081" r="5.07203" fill="#25356A" fill-opacity="0.35"/>
<circle cx="355.115" cy="617.081" r="5.07203" fill="#25356A" fill-opacity="0.35"/>
<circle cx="372.021" cy="617.081" r="5.07203" fill="#25356A" fill-opacity="0.35"/>
<circle cx="388.928" cy="617.081" r="5.07203" fill="#25356A" fill-opacity="0.35"/>
<circle cx="405.835" cy="617.081" r="5.07203" fill="#25356A" fill-opacity="0.35"/>
<circle cx="439.648" cy="617.081" r="5.07203" fill="#25356A" fill-opacity="0.35"/>
<circle cx="456.555" cy="617.081" r="5.07203" fill="#25356A" fill-opacity="0.35"/>
<circle cx="473.462" cy="617.081" r="5.07203" fill="#25356A" fill-opacity="0.35"/>
<circle cx="490.369" cy="617.081" r="5.07203" fill="#25356A" fill-opacity="0.35"/>
<circle cx="507.275" cy="617.081" r="5.07203" fill="#25356A" fill-opacity="0.35"/>
<circle cx="524.182" cy="617.081" r="5.07203" fill="#25356A" fill-opacity="0.35"/>
<circle cx="169.14" cy="633.988" r="5.07203" fill="#25356A" fill-opacity="0.35"/>
<circle cx="186.047" cy="633.988" r="5.07203" fill="#25356A" fill-opacity="0.35"/>
<circle cx="202.953" cy="633.988" r="5.07203" fill="#25356A" fill-opacity="0.35"/>
<circle cx="219.86" cy="633.988" r="5.07203" fill="#25356A" fill-opacity="0.35"/>
<circle cx="236.767" cy="633.988" r="5.07203" fill="#25356A" fill-opacity="0.35"/>
<circle cx="253.674" cy="633.988" r="5.07203" fill="#25356A" fill-opacity="0.35"/>
<circle cx="270.581" cy="633.988" r="5.07203" fill="#25356A" fill-opacity="0.35"/>
<circle cx="287.487" cy="633.988" r="5.07203" fill="#25356A" fill-opacity="0.35"/>
<circle cx="304.394" cy="633.988" r="5.07203" fill="#25356A" fill-opacity="0.35"/>
<circle cx="321.301" cy="633.988" r="5.07203" fill="#25356A" fill-opacity="0.35"/>
<circle cx="338.208" cy="633.988" r="5.07203" fill="#25356A" fill-opacity="0.35"/>
<circle cx="355.115" cy="633.988" r="5.07203" fill="#25356A" fill-opacity="0.35"/>
<circle cx="372.021" cy="633.988" r="5.07203" fill="#25356A" fill-opacity="0.35"/>
<circle cx="388.928" cy="633.988" r="5.07203" fill="#25356A" fill-opacity="0.35"/>
<circle cx="405.835" cy="633.988" r="5.07203" fill="#25356A" fill-opacity="0.35"/>
<circle cx="422.741" cy="633.988" r="5.07203" fill="#25356A" fill-opacity="0.35"/>
<circle cx="456.555" cy="633.988" r="5.07203" fill="#25356A" fill-opacity="0.35"/>
<circle cx="473.462" cy="633.988" r="5.07203" fill="#25356A" fill-opacity="0.35"/>
<circle cx="490.369" cy="633.988" r="5.07203" fill="#25356A" fill-opacity="0.35"/>
<circle cx="507.275" cy="633.988" r="5.07203" fill="#25356A" fill-opacity="0.35"/>
<circle cx="524.182" cy="633.988" r="5.07203" fill="#25356A" fill-opacity="0.35"/>
<circle cx="169.14" cy="650.895" r="5.07203" fill="#25356A" fill-opacity="0.35"/>
<circle cx="186.047" cy="650.895" r="5.07203" fill="#25356A" fill-opacity="0.35"/>
<circle cx="202.953" cy="650.895" r="5.07203" fill="#25356A" fill-opacity="0.35"/>
<circle cx="219.86" cy="650.895" r="5.07203" fill="#25356A" fill-opacity="0.35"/>
<circle cx="236.767" cy="650.895" r="5.07203" fill="#25356A" fill-opacity="0.35"/>
<circle cx="253.674" cy="650.895" r="5.07203" fill="#25356A" fill-opacity="0.35"/>
<circle cx="270.581" cy="650.895" r="5.07203" fill="#25356A" fill-opacity="0.35"/>
<circle cx="287.487" cy="650.895" r="5.07203" fill="#25356A" fill-opacity="0.35"/>
<circle cx="304.394" cy="650.895" r="5.07203" fill="#25356A" fill-opacity="0.35"/>
<circle cx="321.301" cy="650.895" r="5.07203" fill="#25356A" fill-opacity="0.35"/>
<circle cx="338.208" cy="650.895" r="5.07203" fill="#25356A" fill-opacity="0.35"/>
<circle cx="355.115" cy="650.895" r="5.07203" fill="#25356A" fill-opacity="0.35"/>
<circle cx="372.021" cy="650.895" r="5.07203" fill="#25356A" fill-opacity="0.35"/>
<circle cx="388.928" cy="650.895" r="5.07203" fill="#25356A" fill-opacity="0.35"/>
<circle cx="405.835" cy="650.895" r="5.07203" fill="#25356A" fill-opacity="0.35"/>
<circle cx="422.741" cy="650.895" r="5.07203" fill="#25356A" fill-opacity="0.35"/>
<circle cx="439.648" cy="650.895" r="5.07203" fill="#25356A" fill-opacity="0.35"/>
<circle cx="473.462" cy="650.895" r="5.07203" fill="#25356A" fill-opacity="0.35"/>
<circle cx="490.369" cy="650.895" r="5.07203" fill="#25356A" fill-opacity="0.35"/>
<circle cx="507.275" cy="650.895" r="5.07203" fill="#25356A" fill-opacity="0.35"/>
<circle cx="524.182" cy="650.895" r="5.07203" fill="#25356A" fill-opacity="0.35"/>
<circle cx="169.14" cy="667.801" r="5.07203" fill="#25356A" fill-opacity="0.35"/>
<circle cx="186.047" cy="667.801" r="5.07203" fill="#25356A" fill-opacity="0.35"/>
<circle cx="202.953" cy="667.801" r="5.07203" fill="#25356A" fill-opacity="0.35"/>
<circle cx="219.86" cy="667.801" r="5.07203" fill="#25356A" fill-opacity="0.35"/>
<circle cx="236.767" cy="667.801" r="5.07203" fill="#25356A" fill-opacity="0.35"/>
<circle cx="253.674" cy="667.801" r="5.07203" fill="#25356A" fill-opacity="0.35"/>
<circle cx="270.581" cy="667.801" r="5.07203" fill="#25356A" fill-opacity="0.35"/>
<circle cx="287.487" cy="667.801" r="5.07203" fill="#25356A" fill-opacity="0.35"/>
<circle cx="304.394" cy="667.801" r="5.07203" fill="#25356A" fill-opacity="0.35"/>
<circle cx="321.301" cy="667.801" r="5.07203" fill="#25356A" fill-opacity="0.35"/>
<circle cx="338.208" cy="667.801" r="5.07203" fill="#25356A" fill-opacity="0.35"/>
<circle cx="355.115" cy="667.801" r="5.07203" fill="#25356A" fill-opacity="0.35"/>
<circle cx="372.021" cy="667.801" r="5.07203" fill="#25356A" fill-opacity="0.35"/>
<circle cx="388.928" cy="667.801" r="5.07203" fill="#25356A" fill-opacity="0.35"/>
<circle cx="405.835" cy="667.801" r="5.07203" fill="#25356A" fill-opacity="0.35"/>
<circle cx="422.741" cy="667.801" r="5.07203" fill="#25356A" fill-opacity="0.35"/>
<circle cx="439.648" cy="667.801" r="5.07203" fill="#25356A" fill-opacity="0.35"/>
<circle cx="456.555" cy="667.801" r="5.07203" fill="#25356A" fill-opacity="0.35"/>
<circle cx="473.462" cy="667.801" r="5.07203" fill="#25356A" fill-opacity="0.35"/>
<circle cx="507.275" cy="667.801" r="5.07203" fill="#25356A" fill-opacity="0.35"/>
<circle cx="524.182" cy="667.801" r="5.07203" fill="#25356A" fill-opacity="0.35"/>
<circle cx="169.14" cy="684.708" r="5.07203" fill="#25356A" fill-opacity="0.35"/>
<circle cx="186.047" cy="684.708" r="5.07203" fill="#25356A" fill-opacity="0.35"/>
<circle cx="202.953" cy="684.708" r="5.07203" fill="#25356A" fill-opacity="0.35"/>
<circle cx="219.86" cy="684.708" r="5.07203" fill="#25356A" fill-opacity="0.35"/>
<circle cx="236.767" cy="684.708" r="5.07203" fill="#25356A" fill-opacity="0.35"/>
<circle cx="253.674" cy="684.708" r="5.07203" fill="#25356A" fill-opacity="0.35"/>
<circle cx="270.581" cy="684.708" r="5.07203" fill="#25356A" fill-opacity="0.35"/>
<circle cx="287.487" cy="684.708" r="5.07203" fill="#25356A" fill-opacity="0.35"/>
<circle cx="304.394" cy="684.708" r="5.07203" fill="#25356A" fill-opacity="0.35"/>
<circle cx="321.301" cy="684.708" r="5.07203" fill="#25356A" fill-opacity="0.35"/>
<circle cx="338.208" cy="684.708" r="5.07203" fill="#25356A" fill-opacity="0.35"/>
<circle cx="355.115" cy="684.708" r="5.07203" fill="#25356A" fill-opacity="0.35"/>
<circle cx="372.021" cy="684.708" r="5.07203" fill="#25356A" fill-opacity="0.35"/>
<circle cx="388.928" cy="684.708" r="5.07203" fill="#25356A" fill-opacity="0.35"/>
<circle cx="405.835" cy="684.708" r="5.07203" fill="#25356A" fill-opacity="0.35"/>
<circle cx="422.741" cy="684.708" r="5.07203" fill="#25356A" fill-opacity="0.35"/>
<circle cx="439.648" cy="684.708" r="5.07203" fill="#25356A" fill-opacity="0.35"/>
<circle cx="456.555" cy="684.708" r="5.07203" fill="#25356A" fill-opacity="0.35"/>
<circle cx="473.462" cy="684.708" r="5.07203" fill="#25356A" fill-opacity="0.35"/>
<circle cx="490.369" cy="684.708" r="5.07203" fill="#25356A" fill-opacity="0.35"/>
<circle cx="524.182" cy="684.708" r="5.07203" fill="#25356A" fill-opacity="0.35"/>
<circle cx="169.14" cy="701.615" r="5.07203" fill="#25356A" fill-opacity="0.35"/>
<circle cx="186.047" cy="701.615" r="5.07203" fill="#25356A" fill-opacity="0.35"/>
<circle cx="202.953" cy="701.615" r="5.07203" fill="#25356A" fill-opacity="0.35"/>
<circle cx="219.86" cy="701.615" r="5.07203" fill="#25356A" fill-opacity="0.35"/>
<circle cx="236.767" cy="701.615" r="5.07203" fill="#25356A" fill-opacity="0.35"/>
<circle cx="253.674" cy="701.615" r="5.07203" fill="#25356A" fill-opacity="0.35"/>
<circle cx="270.581" cy="701.615" r="5.07203" fill="#25356A" fill-opacity="0.35"/>
<circle cx="287.487" cy="701.615" r="5.07203" fill="#25356A" fill-opacity="0.35"/>
<circle cx="304.394" cy="701.615" r="5.07203" fill="#25356A" fill-opacity="0.35"/>
<circle cx="321.301" cy="701.615" r="5.07203" fill="#25356A" fill-opacity="0.35"/>
<circle cx="338.208" cy="701.615" r="5.07203" fill="#25356A" fill-opacity="0.35"/>
<circle cx="355.115" cy="701.615" r="5.07203" fill="#25356A" fill-opacity="0.35"/>
<circle cx="372.021" cy="701.615" r="5.07203" fill="#25356A" fill-opacity="0.35"/>
<circle cx="388.928" cy="701.615" r="5.07203" fill="#25356A" fill-opacity="0.35"/>
<circle cx="405.835" cy="701.615" r="5.07203" fill="#25356A" fill-opacity="0.35"/>
<circle cx="422.741" cy="701.615" r="5.07203" fill="#25356A" fill-opacity="0.35"/>
<circle cx="439.648" cy="701.615" r="5.07203" fill="#25356A" fill-opacity="0.35"/>
<circle cx="456.555" cy="701.615" r="5.07203" fill="#25356A" fill-opacity="0.35"/>
<circle cx="473.462" cy="701.615" r="5.07203" fill="#25356A" fill-opacity="0.35"/>
<circle cx="490.369" cy="701.615" r="5.07203" fill="#25356A" fill-opacity="0.35"/>
<circle cx="507.275" cy="701.615" r="5.07203" fill="#25356A" fill-opacity="0.35"/>
<circle cx="524.182" cy="701.615" r="5.07203" fill="#25356A" fill-opacity="0.35"/>
<circle cx="169.14" cy="718.521" r="5.07203" fill="#25356A" fill-opacity="0.35"/>
<circle cx="186.047" cy="718.521" r="5.07203" fill="#25356A" fill-opacity="0.35"/>
<circle cx="202.953" cy="718.521" r="5.07203" fill="#25356A" fill-opacity="0.35"/>
<circle cx="219.86" cy="718.521" r="5.07203" fill="#25356A" fill-opacity="0.35"/>
<circle cx="236.767" cy="718.521" r="5.07203" fill="#25356A" fill-opacity="0.35"/>
<circle cx="253.674" cy="718.521" r="5.07203" fill="#25356A" fill-opacity="0.35"/>
<circle cx="270.581" cy="718.521" r="5.07203" fill="#25356A" fill-opacity="0.35"/>
<circle cx="287.487" cy="718.521" r="5.07203" fill="#25356A" fill-opacity="0.35"/>
<circle cx="304.394" cy="718.521" r="5.07203" fill="#25356A" fill-opacity="0.35"/>
<circle cx="321.301" cy="718.521" r="5.07203" fill="#25356A" fill-opacity="0.35"/>
<circle cx="338.208" cy="718.521" r="5.07203" fill="#25356A" fill-opacity="0.35"/>
<circle cx="355.115" cy="718.521" r="5.07203" fill="#25356A" fill-opacity="0.35"/>
<circle cx="372.021" cy="718.521" r="5.07203" fill="#25356A" fill-opacity="0.35"/>
<circle cx="388.928" cy="718.521" r="5.07203" fill="#25356A" fill-opacity="0.35"/>
<circle cx="405.835" cy="718.521" r="5.07203" fill="#25356A" fill-opacity="0.35"/>
<circle cx="422.741" cy="718.521" r="5.07203" fill="#25356A" fill-opacity="0.35"/>
<circle cx="439.648" cy="718.521" r="5.07203" fill="#25356A" fill-opacity="0.35"/>
<circle cx="456.555" cy="718.521" r="5.07203" fill="#25356A" fill-opacity="0.35"/>
<circle cx="473.462" cy="718.521" r="5.07203" fill="#25356A" fill-opacity="0.35"/>
<circle cx="490.369" cy="718.521" r="5.07203" fill="#25356A" fill-opacity="0.35"/>
<circle cx="507.275" cy="718.521" r="5.07203" fill="#25356A" fill-opacity="0.35"/>
<circle cx="169.14" cy="735.428" r="5.07203" fill="#25356A" fill-opacity="0.35"/>
<circle cx="186.047" cy="735.428" r="5.07203" fill="#25356A" fill-opacity="0.35"/>
<circle cx="202.953" cy="735.428" r="5.07203" fill="#25356A" fill-opacity="0.35"/>
<circle cx="219.86" cy="735.428" r="5.07203" fill="#25356A" fill-opacity="0.35"/>
<circle cx="236.767" cy="735.428" r="5.07203" fill="#25356A" fill-opacity="0.35"/>
<circle cx="253.674" cy="735.428" r="5.07203" fill="#25356A" fill-opacity="0.35"/>
<circle cx="270.581" cy="735.428" r="5.07203" fill="#25356A" fill-opacity="0.35"/>
<circle cx="287.487" cy="735.428" r="5.07203" fill="#25356A" fill-opacity="0.35"/>
<circle cx="304.394" cy="735.428" r="5.07203" fill="#25356A" fill-opacity="0.35"/>
<circle cx="321.301" cy="735.428" r="5.07203" fill="#25356A" fill-opacity="0.35"/>
<circle cx="338.208" cy="735.428" r="5.07203" fill="#25356A" fill-opacity="0.35"/>
<circle cx="355.115" cy="735.428" r="5.07203" fill="#25356A" fill-opacity="0.35"/>
<circle cx="372.021" cy="735.428" r="5.07203" fill="#25356A" fill-opacity="0.35"/>
<circle cx="388.928" cy="735.428" r="5.07203" fill="#25356A" fill-opacity="0.35"/>
<circle cx="405.835" cy="735.428" r="5.07203" fill="#25356A" fill-opacity="0.35"/>
<circle cx="422.741" cy="735.428" r="5.07203" fill="#25356A" fill-opacity="0.35"/>
<circle cx="439.648" cy="735.428" r="5.07203" fill="#25356A" fill-opacity="0.35"/>
<circle cx="456.555" cy="735.428" r="5.07203" fill="#25356A" fill-opacity="0.35"/>
<circle cx="473.462" cy="735.428" r="5.07203" fill="#25356A" fill-opacity="0.35"/>
<circle cx="490.369" cy="735.428" r="5.07203" fill="#25356A" fill-opacity="0.35"/>
<circle cx="507.275" cy="735.428" r="5.07203" fill="#25356A" fill-opacity="0.35"/>
<circle cx="169.14" cy="752.335" r="5.07203" fill="#25356A" fill-opacity="0.35"/>
<circle cx="186.047" cy="752.335" r="5.07203" fill="#25356A" fill-opacity="0.35"/>
<circle cx="202.953" cy="752.335" r="5.07203" fill="#25356A" fill-opacity="0.35"/>
<circle cx="219.86" cy="752.335" r="5.07203" fill="#25356A" fill-opacity="0.35"/>
<circle cx="236.767" cy="752.335" r="5.07203" fill="#25356A" fill-opacity="0.35"/>
<circle cx="253.674" cy="752.335" r="5.07203" fill="#25356A" fill-opacity="0.35"/>
<circle cx="270.581" cy="752.335" r="5.07203" fill="#25356A" fill-opacity="0.35"/>
<circle cx="287.487" cy="752.335" r="5.07203" fill="#25356A" fill-opacity="0.35"/>
<circle cx="304.394" cy="752.335" r="5.07203" fill="#25356A" fill-opacity="0.35"/>
<circle cx="321.301" cy="752.335" r="5.07203" fill="#25356A" fill-opacity="0.35"/>
<circle cx="338.208" cy="752.335" r="5.07203" fill="#25356A" fill-opacity="0.35"/>
<circle cx="355.115" cy="752.335" r="5.07203" fill="#25356A" fill-opacity="0.35"/>
<circle cx="372.021" cy="752.335" r="5.07203" fill="#25356A" fill-opacity="0.35"/>
<circle cx="388.928" cy="752.335" r="5.07203" fill="#25356A" fill-opacity="0.35"/>
<circle cx="405.835" cy="752.335" r="5.07203" fill="#25356A" fill-opacity="0.35"/>
<circle cx="422.741" cy="752.335" r="5.07203" fill="#25356A" fill-opacity="0.35"/>
<circle cx="439.648" cy="752.335" r="5.07203" fill="#25356A" fill-opacity="0.35"/>
<circle cx="456.555" cy="752.335" r="5.07203" fill="#25356A" fill-opacity="0.35"/>
<circle cx="473.462" cy="752.335" r="5.07203" fill="#25356A" fill-opacity="0.35"/>
<circle cx="490.369" cy="752.335" r="5.07203" fill="#25356A" fill-opacity="0.35"/>
<circle cx="507.275" cy="752.335" r="5.07203" fill="#25356A" fill-opacity="0.35"/>
<circle cx="524.182" cy="752.335" r="5.07203" fill="#25356A" fill-opacity="0.35"/>
<circle cx="169.14" cy="769.242" r="5.07203" fill="#25356A" fill-opacity="0.35"/>
<circle cx="186.047" cy="769.242" r="5.07203" fill="#25356A" fill-opacity="0.35"/>
<circle cx="202.953" cy="769.242" r="5.07203" fill="#25356A" fill-opacity="0.35"/>
<circle cx="219.86" cy="769.242" r="5.07203" fill="#25356A" fill-opacity="0.35"/>
<circle cx="236.767" cy="769.242" r="5.07203" fill="#25356A" fill-opacity="0.35"/>
<circle cx="253.674" cy="769.242" r="5.07203" fill="#25356A" fill-opacity="0.35"/>
<circle cx="270.581" cy="769.242" r="5.07203" fill="#25356A" fill-opacity="0.35"/>
<circle cx="287.487" cy="769.242" r="5.07203" fill="#25356A" fill-opacity="0.35"/>
<circle cx="304.394" cy="769.242" r="5.07203" fill="#25356A" fill-opacity="0.35"/>
<circle cx="321.301" cy="769.242" r="5.07203" fill="#25356A" fill-opacity="0.35"/>
<circle cx="338.208" cy="769.242" r="5.07203" fill="#25356A" fill-opacity="0.35"/>
<circle cx="355.115" cy="769.242" r="5.07203" fill="#25356A" fill-opacity="0.35"/>
<circle cx="372.021" cy="769.242" r="5.07203" fill="#25356A" fill-opacity="0.35"/>
<circle cx="388.928" cy="769.242" r="5.07203" fill="#25356A" fill-opacity="0.35"/>
<circle cx="405.835" cy="769.242" r="5.07203" fill="#25356A" fill-opacity="0.35"/>
<circle cx="422.741" cy="769.242" r="5.07203" fill="#25356A" fill-opacity="0.35"/>
<circle cx="439.648" cy="769.242" r="5.07203" fill="#25356A" fill-opacity="0.35"/>
<circle cx="456.555" cy="769.242" r="5.07203" fill="#25356A" fill-opacity="0.35"/>
<circle cx="473.462" cy="769.242" r="5.07203" fill="#25356A" fill-opacity="0.35"/>
<circle cx="490.369" cy="769.242" r="5.07203" fill="#25356A" fill-opacity="0.35"/>
<circle cx="507.275" cy="769.242" r="5.07203" fill="#25356A" fill-opacity="0.35"/>
<circle cx="169.14" cy="786.149" r="5.07203" fill="#25356A" fill-opacity="0.35"/>
<circle cx="186.047" cy="786.149" r="5.07203" fill="#25356A" fill-opacity="0.35"/>
<circle cx="202.953" cy="786.149" r="5.07203" fill="#25356A" fill-opacity="0.35"/>
<circle cx="219.86" cy="786.149" r="5.07203" fill="#25356A" fill-opacity="0.35"/>
<circle cx="236.767" cy="786.149" r="5.07203" fill="#25356A" fill-opacity="0.35"/>
<circle cx="253.674" cy="786.149" r="5.07203" fill="#25356A" fill-opacity="0.35"/>
<circle cx="270.581" cy="786.149" r="5.07203" fill="#25356A" fill-opacity="0.35"/>
<circle cx="287.487" cy="786.149" r="5.07203" fill="#25356A" fill-opacity="0.35"/>
<circle cx="304.394" cy="786.149" r="5.07203" fill="#25356A" fill-opacity="0.35"/>
<circle cx="321.301" cy="786.149" r="5.07203" fill="#25356A" fill-opacity="0.35"/>
<circle cx="338.208" cy="786.149" r="5.07203" fill="#25356A" fill-opacity="0.35"/>
<circle cx="355.115" cy="786.149" r="5.07203" fill="#25356A" fill-opacity="0.35"/>
<circle cx="372.021" cy="786.149" r="5.07203" fill="#25356A" fill-opacity="0.35"/>
<circle cx="388.928" cy="786.149" r="5.07203" fill="#25356A" fill-opacity="0.35"/>
<circle cx="405.835" cy="786.149" r="5.07203" fill="#25356A" fill-opacity="0.35"/>
<circle cx="422.741" cy="786.149" r="5.07203" fill="#25356A" fill-opacity="0.35"/>
<circle cx="439.648" cy="786.149" r="5.07203" fill="#25356A" fill-opacity="0.35"/>
<circle cx="456.555" cy="786.149" r="5.07203" fill="#25356A" fill-opacity="0.35"/>
<circle cx="473.462" cy="786.149" r="5.07203" fill="#25356A" fill-opacity="0.35"/>
<circle cx="490.369" cy="786.149" r="5.07203" fill="#25356A" fill-opacity="0.35"/>
<circle cx="507.275" cy="786.149" r="5.07203" fill="#25356A" fill-opacity="0.35"/>
<circle cx="169.14" cy="803.055" r="5.07203" fill="#25356A" fill-opacity="0.35"/>
<circle cx="186.047" cy="803.055" r="5.07203" fill="#25356A" fill-opacity="0.35"/>
<circle cx="202.953" cy="803.055" r="5.07203" fill="#25356A" fill-opacity="0.35"/>
<circle cx="219.86" cy="803.055" r="5.07203" fill="#25356A" fill-opacity="0.35"/>
<circle cx="236.767" cy="803.055" r="5.07203" fill="#25356A" fill-opacity="0.35"/>
<circle cx="253.674" cy="803.055" r="5.07203" fill="#25356A" fill-opacity="0.35"/>
<circle cx="270.581" cy="803.055" r="5.07203" fill="#25356A" fill-opacity="0.35"/>
<circle cx="287.487" cy="803.055" r="5.07203" fill="#25356A" fill-opacity="0.35"/>
<circle cx="304.394" cy="803.055" r="5.07203" fill="#25356A" fill-opacity="0.35"/>
<circle cx="321.301" cy="803.055" r="5.07203" fill="#25356A" fill-opacity="0.35"/>
<circle cx="338.208" cy="803.055" r="5.07203" fill="#25356A" fill-opacity="0.35"/>
<circle cx="355.115" cy="803.055" r="5.07203" fill="#25356A" fill-opacity="0.35"/>
<circle cx="372.021" cy="803.055" r="5.07203" fill="#25356A" fill-opacity="0.35"/>
<circle cx="388.928" cy="803.055" r="5.07203" fill="#25356A" fill-opacity="0.35"/>
<circle cx="405.835" cy="803.055" r="5.07203" fill="#25356A" fill-opacity="0.35"/>
<circle cx="422.741" cy="803.055" r="5.07203" fill="#25356A" fill-opacity="0.35"/>
<circle cx="439.648" cy="803.055" r="5.07203" fill="#25356A" fill-opacity="0.35"/>
<circle cx="456.555" cy="803.055" r="5.07203" fill="#25356A" fill-opacity="0.35"/>
<circle cx="473.462" cy="803.055" r="5.07203" fill="#25356A" fill-opacity="0.35"/>
<circle cx="490.369" cy="803.055" r="5.07203" fill="#25356A" fill-opacity="0.35"/>
<circle cx="507.275" cy="803.055" r="5.07203" fill="#25356A" fill-opacity="0.35"/>
<circle cx="524.182" cy="803.055" r="5.07203" fill="#25356A" fill-opacity="0.35"/>
<circle cx="169.14" cy="819.962" r="5.07203" fill="#25356A" fill-opacity="0.35"/>
<circle cx="186.047" cy="819.962" r="5.07203" fill="#25356A" fill-opacity="0.35"/>
<circle cx="202.953" cy="819.962" r="5.07203" fill="#25356A" fill-opacity="0.35"/>
<circle cx="219.86" cy="819.962" r="5.07203" fill="#25356A" fill-opacity="0.35"/>
<circle cx="236.767" cy="819.962" r="5.07203" fill="#25356A" fill-opacity="0.35"/>
<circle cx="253.674" cy="819.962" r="5.07203" fill="#25356A" fill-opacity="0.35"/>
<circle cx="270.581" cy="819.962" r="5.07203" fill="#25356A" fill-opacity="0.35"/>
<circle cx="287.487" cy="819.962" r="5.07203" fill="#25356A" fill-opacity="0.35"/>
<circle cx="304.394" cy="819.962" r="5.07203" fill="#25356A" fill-opacity="0.35"/>
<circle cx="321.301" cy="819.962" r="5.07203" fill="#25356A" fill-opacity="0.35"/>
<circle cx="338.208" cy="819.962" r="5.07203" fill="#25356A" fill-opacity="0.35"/>
<circle cx="355.115" cy="819.962" r="5.07203" fill="#25356A" fill-opacity="0.35"/>
<circle cx="372.021" cy="819.962" r="5.07203" fill="#25356A" fill-opacity="0.35"/>
<circle cx="388.928" cy="819.962" r="5.07203" fill="#25356A" fill-opacity="0.35"/>
<circle cx="405.835" cy="819.962" r="5.07203" fill="#25356A" fill-opacity="0.35"/>
<circle cx="422.741" cy="819.962" r="5.07203" fill="#25356A" fill-opacity="0.35"/>
<circle cx="439.648" cy="819.962" r="5.07203" fill="#25356A" fill-opacity="0.35"/>
<circle cx="456.555" cy="819.962" r="5.07203" fill="#25356A" fill-opacity="0.35"/>
<circle cx="473.462" cy="819.962" r="5.07203" fill="#25356A" fill-opacity="0.35"/>
<circle cx="490.369" cy="819.962" r="5.07203" fill="#25356A" fill-opacity="0.35"/>
<circle cx="507.275" cy="819.962" r="5.07203" fill="#25356A" fill-opacity="0.35"/>
<circle cx="524.182" cy="819.962" r="5.07203" fill="#25356A" fill-opacity="0.35"/>
<circle cx="169.14" cy="836.869" r="5.07203" fill="#25356A" fill-opacity="0.35"/>
<circle cx="186.047" cy="836.869" r="5.07203" fill="#25356A" fill-opacity="0.35"/>
<circle cx="202.953" cy="836.869" r="5.07203" fill="#25356A" fill-opacity="0.35"/>
<circle cx="219.86" cy="836.869" r="5.07203" fill="#25356A" fill-opacity="0.35"/>
<circle cx="236.767" cy="836.869" r="5.07203" fill="#25356A" fill-opacity="0.35"/>
<circle cx="253.674" cy="836.869" r="5.07203" fill="#25356A" fill-opacity="0.35"/>
<circle cx="270.581" cy="836.869" r="5.07203" fill="#25356A" fill-opacity="0.35"/>
<circle cx="287.487" cy="836.869" r="5.07203" fill="#25356A" fill-opacity="0.35"/>
<circle cx="304.394" cy="836.869" r="5.07203" fill="#25356A" fill-opacity="0.35"/>
<circle cx="321.301" cy="836.869" r="5.07203" fill="#25356A" fill-opacity="0.35"/>
<circle cx="338.208" cy="836.869" r="5.07203" fill="#25356A" fill-opacity="0.35"/>
<circle cx="355.115" cy="836.869" r="5.07203" fill="#25356A" fill-opacity="0.35"/>
<circle cx="372.021" cy="836.869" r="5.07203" fill="#25356A" fill-opacity="0.35"/>
<circle cx="388.928" cy="836.869" r="5.07203" fill="#25356A" fill-opacity="0.35"/>
<circle cx="405.835" cy="836.869" r="5.07203" fill="#25356A" fill-opacity="0.35"/>
<circle cx="422.741" cy="836.869" r="5.07203" fill="#25356A" fill-opacity="0.35"/>
<circle cx="439.648" cy="836.869" r="5.07203" fill="#25356A" fill-opacity="0.35"/>
<circle cx="456.555" cy="836.869" r="5.07203" fill="#25356A" fill-opacity="0.35"/>
<circle cx="473.462" cy="836.869" r="5.07203" fill="#25356A" fill-opacity="0.35"/>
<circle cx="490.369" cy="836.869" r="5.07203" fill="#25356A" fill-opacity="0.35"/>
<circle cx="507.275" cy="836.869" r="5.07203" fill="#25356A" fill-opacity="0.35"/>
<circle cx="524.182" cy="836.869" r="5.07203" fill="#25356A" fill-opacity="0.35"/>
<circle cx="169.14" cy="853.776" r="5.07203" fill="#25356A" fill-opacity="0.35"/>
<circle cx="186.047" cy="853.776" r="5.07203" fill="#25356A" fill-opacity="0.35"/>
<circle cx="202.953" cy="853.776" r="5.07203" fill="#25356A" fill-opacity="0.35"/>
<circle cx="219.86" cy="853.776" r="5.07203" fill="#25356A" fill-opacity="0.35"/>
<circle cx="236.767" cy="853.776" r="5.07203" fill="#25356A" fill-opacity="0.35"/>
<circle cx="253.674" cy="853.776" r="5.07203" fill="#25356A" fill-opacity="0.35"/>
<circle cx="270.581" cy="853.776" r="5.07203" fill="#25356A" fill-opacity="0.35"/>
<circle cx="287.487" cy="853.776" r="5.07203" fill="#25356A" fill-opacity="0.35"/>
<circle cx="304.394" cy="853.776" r="5.07203" fill="#25356A" fill-opacity="0.35"/>
<circle cx="321.301" cy="853.776" r="5.07203" fill="#25356A" fill-opacity="0.35"/>
<circle cx="338.208" cy="853.776" r="5.07203" fill="#25356A" fill-opacity="0.35"/>
<circle cx="355.115" cy="853.776" r="5.07203" fill="#25356A" fill-opacity="0.35"/>
<circle cx="372.021" cy="853.776" r="5.07203" fill="#25356A" fill-opacity="0.35"/>
<circle cx="388.928" cy="853.776" r="5.07203" fill="#25356A" fill-opacity="0.35"/>
<circle cx="405.835" cy="853.776" r="5.07203" fill="#25356A" fill-opacity="0.35"/>
<circle cx="422.741" cy="853.776" r="5.07203" fill="#25356A" fill-opacity="0.35"/>
<circle cx="439.648" cy="853.776" r="5.07203" fill="#25356A" fill-opacity="0.35"/>
<circle cx="456.555" cy="853.776" r="5.07203" fill="#25356A" fill-opacity="0.35"/>
<circle cx="473.462" cy="853.776" r="5.07203" fill="#25356A" fill-opacity="0.35"/>
<circle cx="490.369" cy="853.776" r="5.07203" fill="#25356A" fill-opacity="0.35"/>
<circle cx="507.275" cy="853.776" r="5.07203" fill="#25356A" fill-opacity="0.35"/>
<circle cx="524.182" cy="853.776" r="5.07203" fill="#25356A" fill-opacity="0.35"/>
<circle cx="169.14" cy="870.683" r="5.07203" fill="#25356A" fill-opacity="0.35"/>
<circle cx="186.047" cy="870.683" r="5.07203" fill="#25356A" fill-opacity="0.35"/>
<circle cx="202.953" cy="870.683" r="5.07203" fill="#25356A" fill-opacity="0.35"/>
<circle cx="219.86" cy="870.683" r="5.07203" fill="#25356A" fill-opacity="0.35"/>
<circle cx="236.767" cy="870.683" r="5.07203" fill="#25356A" fill-opacity="0.35"/>
<circle cx="253.674" cy="870.683" r="5.07203" fill="#25356A" fill-opacity="0.35"/>
<circle cx="270.581" cy="870.683" r="5.07203" fill="#25356A" fill-opacity="0.35"/>
<circle cx="287.487" cy="870.683" r="5.07203" fill="#25356A" fill-opacity="0.35"/>
<circle cx="304.394" cy="870.683" r="5.07203" fill="#25356A" fill-opacity="0.35"/>
<circle cx="321.301" cy="870.683" r="5.07203" fill="#25356A" fill-opacity="0.35"/>
<circle cx="338.208" cy="870.683" r="5.07203" fill="#25356A" fill-opacity="0.35"/>
<circle cx="355.115" cy="870.683" r="5.07203" fill="#25356A" fill-opacity="0.35"/>
<circle cx="372.021" cy="870.683" r="5.07203" fill="#25356A" fill-opacity="0.35"/>
<circle cx="388.928" cy="870.683" r="5.07203" fill="#25356A" fill-opacity="0.35"/>
<circle cx="405.835" cy="870.683" r="5.07203" fill="#25356A" fill-opacity="0.35"/>
<circle cx="422.741" cy="870.683" r="5.07203" fill="#25356A" fill-opacity="0.35"/>
<circle cx="439.648" cy="870.683" r="5.07203" fill="#25356A" fill-opacity="0.35"/>
<circle cx="456.555" cy="870.683" r="5.07203" fill="#25356A" fill-opacity="0.35"/>
<circle cx="473.462" cy="870.683" r="5.07203" fill="#25356A" fill-opacity="0.35"/>
<circle cx="490.369" cy="870.683" r="5.07203" fill="#25356A" fill-opacity="0.35"/>
<circle cx="507.275" cy="870.683" r="5.07203" fill="#25356A" fill-opacity="0.35"/>
<circle cx="524.182" cy="870.683" r="5.07203" fill="#25356A" fill-opacity="0.35"/>
<circle cx="169.14" cy="887.589" r="5.07203" fill="#25356A" fill-opacity="0.35"/>
<circle cx="186.047" cy="887.589" r="5.07203" fill="#25356A" fill-opacity="0.35"/>
<circle cx="202.953" cy="887.589" r="5.07203" fill="#25356A" fill-opacity="0.35"/>
<circle cx="219.86" cy="887.589" r="5.07203" fill="#25356A" fill-opacity="0.35"/>
<circle cx="236.767" cy="887.589" r="5.07203" fill="#25356A" fill-opacity="0.35"/>
<circle cx="253.674" cy="887.589" r="5.07203" fill="#25356A" fill-opacity="0.35"/>
<circle cx="270.581" cy="887.589" r="5.07203" fill="#25356A" fill-opacity="0.35"/>
<circle cx="287.487" cy="887.589" r="5.07203" fill="#25356A" fill-opacity="0.35"/>
<circle cx="304.394" cy="887.589" r="5.07203" fill="#25356A" fill-opacity="0.35"/>
<circle cx="321.301" cy="887.589" r="5.07203" fill="#25356A" fill-opacity="0.35"/>
<circle cx="338.208" cy="887.589" r="5.07203" fill="#25356A" fill-opacity="0.35"/>
<circle cx="355.115" cy="887.589" r="5.07203" fill="#25356A" fill-opacity="0.35"/>
<circle cx="372.021" cy="887.589" r="5.07203" fill="#25356A" fill-opacity="0.35"/>
<circle cx="388.928" cy="887.589" r="5.07203" fill="#25356A" fill-opacity="0.35"/>
<circle cx="405.835" cy="887.589" r="5.07203" fill="#25356A" fill-opacity="0.35"/>
<circle cx="422.741" cy="887.589" r="5.07203" fill="#25356A" fill-opacity="0.35"/>
<circle cx="439.648" cy="887.589" r="5.07203" fill="#25356A" fill-opacity="0.35"/>
<circle cx="456.555" cy="887.589" r="5.07203" fill="#25356A" fill-opacity="0.35"/>
<circle cx="473.462" cy="887.589" r="5.07203" fill="#25356A" fill-opacity="0.35"/>
<circle cx="490.369" cy="887.589" r="5.07203" fill="#25356A" fill-opacity="0.35"/>
<circle cx="507.275" cy="887.589" r="5.07203" fill="#25356A" fill-opacity="0.35"/>
<circle cx="524.182" cy="887.589" r="5.07203" fill="#25356A" fill-opacity="0.35"/>
<circle cx="169.14" cy="904.496" r="5.07203" fill="#25356A" fill-opacity="0.35"/>
<circle cx="186.047" cy="904.496" r="5.07203" fill="#25356A" fill-opacity="0.35"/>
<circle cx="202.953" cy="904.496" r="5.07203" fill="#25356A" fill-opacity="0.35"/>
<circle cx="219.86" cy="904.496" r="5.07203" fill="#25356A" fill-opacity="0.35"/>
<circle cx="236.767" cy="904.496" r="5.07203" fill="#25356A" fill-opacity="0.35"/>
<circle cx="253.674" cy="904.496" r="5.07203" fill="#25356A" fill-opacity="0.35"/>
<circle cx="270.581" cy="904.496" r="5.07203" fill="#25356A" fill-opacity="0.35"/>
<circle cx="287.487" cy="904.496" r="5.07203" fill="#25356A" fill-opacity="0.35"/>
<circle cx="304.394" cy="904.496" r="5.07203" fill="#25356A" fill-opacity="0.35"/>
<circle cx="321.301" cy="904.496" r="5.07203" fill="#25356A" fill-opacity="0.35"/>
<circle cx="338.208" cy="904.496" r="5.07203" fill="#25356A" fill-opacity="0.35"/>
<circle cx="355.115" cy="904.496" r="5.07203" fill="#25356A" fill-opacity="0.35"/>
<circle cx="372.021" cy="904.496" r="5.07203" fill="#25356A" fill-opacity="0.35"/>
<circle cx="388.928" cy="904.496" r="5.07203" fill="#25356A" fill-opacity="0.35"/>
<circle cx="405.835" cy="904.496" r="5.07203" fill="#25356A" fill-opacity="0.35"/>
<circle cx="422.741" cy="904.496" r="5.07203" fill="#25356A" fill-opacity="0.35"/>
<circle cx="439.648" cy="904.496" r="5.07203" fill="#25356A" fill-opacity="0.35"/>
<circle cx="456.555" cy="904.496" r="5.07203" fill="#25356A" fill-opacity="0.35"/>
<circle cx="473.462" cy="904.496" r="5.07203" fill="#25356A" fill-opacity="0.35"/>
<circle cx="490.369" cy="904.496" r="5.07203" fill="#25356A" fill-opacity="0.35"/>
<circle cx="507.275" cy="904.496" r="5.07203" fill="#25356A" fill-opacity="0.35"/>
<circle cx="524.182" cy="904.496" r="5.07203" fill="#25356A" fill-opacity="0.35"/>
<circle cx="169.14" cy="921.403" r="5.07203" fill="#25356A" fill-opacity="0.35"/>
<circle cx="186.047" cy="921.403" r="5.07203" fill="#25356A" fill-opacity="0.35"/>
<circle cx="202.953" cy="921.403" r="5.07203" fill="#25356A" fill-opacity="0.35"/>
<circle cx="219.86" cy="921.403" r="5.07203" fill="#25356A" fill-opacity="0.35"/>
<circle cx="236.767" cy="921.403" r="5.07203" fill="#25356A" fill-opacity="0.35"/>
<circle cx="253.674" cy="921.403" r="5.07203" fill="#25356A" fill-opacity="0.35"/>
<circle cx="270.581" cy="921.403" r="5.07203" fill="#25356A" fill-opacity="0.35"/>
<circle cx="287.487" cy="921.403" r="5.07203" fill="#25356A" fill-opacity="0.35"/>
<circle cx="304.394" cy="921.403" r="5.07203" fill="#25356A" fill-opacity="0.35"/>
<circle cx="321.301" cy="921.403" r="5.07203" fill="#25356A" fill-opacity="0.35"/>
<circle cx="338.208" cy="921.403" r="5.07203" fill="#25356A" fill-opacity="0.35"/>
<circle cx="355.115" cy="921.403" r="5.07203" fill="#25356A" fill-opacity="0.35"/>
<circle cx="372.021" cy="921.403" r="5.07203" fill="#25356A" fill-opacity="0.35"/>
<circle cx="388.928" cy="921.403" r="5.07203" fill="#25356A" fill-opacity="0.35"/>
<circle cx="405.835" cy="921.403" r="5.07203" fill="#25356A" fill-opacity="0.35"/>
<circle cx="422.741" cy="921.403" r="5.07203" fill="#25356A" fill-opacity="0.35"/>
<circle cx="439.648" cy="921.403" r="5.07203" fill="#25356A" fill-opacity="0.35"/>
<circle cx="456.555" cy="921.403" r="5.07203" fill="#25356A" fill-opacity="0.35"/>
<circle cx="473.462" cy="921.403" r="5.07203" fill="#25356A" fill-opacity="0.35"/>
<circle cx="490.369" cy="921.403" r="5.07203" fill="#25356A" fill-opacity="0.35"/>
<circle cx="507.275" cy="921.403" r="5.07203" fill="#25356A" fill-opacity="0.35"/>
<circle cx="524.182" cy="921.403" r="5.07203" fill="#25356A" fill-opacity="0.35"/>
</g>
<g opacity="0.91" filter="url(#filter1_d_118_12)">
<path d="M485.447 723.59C242.628 510.852 155.296 626.802 147.571 638.258C147.149 638.884 147.004 639.538 147.011 640.294L148.918 845.474C150.308 995.019 275.637 1124.34 412.543 1064.15C482.772 1033.28 547.03 983.027 575.005 901.317C614.397 786.26 505.11 740.817 485.447 723.59Z" fill="#6FCF97"/>
</g>
<defs>
<filter id="filter0_d_118_12" x="131.044" y="560.509" width="549.293" height="595.581" filterUnits="userSpaceOnUse" color-interpolation-filters="sRGB">
<feFlood flood-opacity="0" result="BackgroundImageFix"/>
<feColorMatrix in="SourceAlpha" type="matrix" values="0 0 0 0 0 0 0 0 0 0 0 0 0 0 0 0 0 0 127 0" result="hardAlpha"/>
<feOffset dx="20.4354" dy="20.4354"/>
<feGaussianBlur stdDeviation="28.2009"/>
<feColorMatrix type="matrix" values="0 0 0 0 0 0 0 0 0 0 0 0 0 0 0 0 0 0 0.04 0"/>
<feBlend mode="normal" in2="BackgroundImageFix" result="effect1_dropShadow_118_12"/>
<feBlend mode="normal" in="SourceGraphic" in2="effect1_dropShadow_118_12" result="shape"/>
</filter>
<filter id="filter1_d_118_12" x="111.044" y="560.509" width="549.293" height="595.581" filterUnits="userSpaceOnUse" color-interpolation-filters="sRGB">
<feFlood flood-opacity="0" result="BackgroundImageFix"/>
<feColorMatrix in="SourceAlpha" type="matrix" values="0 0 0 0 0 0 0 0 0 0 0 0 0 0 0 0 0 0 127 0" result="hardAlpha"/>
<feOffset dx="20.4354" dy="20.4354"/>
<feGaussianBlur stdDeviation="28.2009"/>
<feColorMatrix type="matrix" values="0 0 0 0 0 0 0 0 0 0 0 0 0 0 0 0 0 0 0.04 0"/>
<feBlend mode="normal" in2="BackgroundImageFix" result="effect1_dropShadow_118_12"/>
<feBlend mode="normal" in="SourceGraphic" in2="effect1_dropShadow_118_12" result="shape"/>
</filter>
</defs>
</svg>
